<svg width="185" height="29" viewBox="0 0 185 29" fill="none" xmlns="http://www.w3.org/2000/svg">
<path d="M0.47 14.215C0.47 11.7183 0.983333 9.50167 2.01 7.565C3.06 5.62833 4.48333 4.135 6.28 3.085C8.1 2.01167 10.1183 1.475 12.335 1.475C12.965 1.475 13.49 1.53333 13.91 1.65C14.3533 1.76667 14.7733 1.91833 15.17 2.105C15.2633 2.12833 15.345 2.15167 15.415 2.175C15.5083 2.19833 15.6017 2.23333 15.695 2.28L14.785 0.459999L14.995 0.249998H20.315L22.87 10.89L19.125 12.185C18.565 10.9717 17.9583 9.95667 17.305 9.14C16.675 8.3 15.9633 7.67 15.17 7.25C14.4 6.80667 13.5367 6.585 12.58 6.585C11.5067 6.585 10.55 6.9 9.71 7.53C8.87 8.16 8.21667 9.05833 7.75 10.225C7.28333 11.3683 7.05 12.6867 7.05 14.18C7.05 15.72 7.295 17.0733 7.785 18.24C8.275 19.4067 8.96333 20.3167 9.85 20.97C10.76 21.6 11.81 21.915 13 21.915C14.19 21.915 15.275 21.6 16.255 20.97C17.235 20.34 18.0633 19.5467 18.74 18.59C19.44 17.6333 20.0233 16.6067 20.49 15.51L24.41 16.77L21.4 28.25H16.29L16.08 28.04L17.095 25.975C16.9783 26.0217 16.8617 26.0683 16.745 26.115C16.6283 26.1617 16.5 26.1967 16.36 26.22C15.9867 26.3833 15.625 26.5233 15.275 26.64C14.9483 26.7567 14.5633 26.85 14.12 26.92C13.6767 26.99 13.1867 27.025 12.65 27.025C10.34 27.025 8.25167 26.4883 6.385 25.415C4.54167 24.3183 3.095 22.8017 2.045 20.865C0.995 18.905 0.47 16.6883 0.47 14.215ZM28.1916 26.15C28.3083 24.3533 28.3666 22.4867 28.3666 20.55V6.13C28.04 6.13 27.2116 6.29333 25.8816 6.62L25.3916 6.725L25.2516 6.515L25.9866 2H29.3816C30.0583 2 30.84 1.97667 31.7266 1.93C32.6133 1.86 33.2783 1.79 33.7216 1.72L33.8266 1.895C33.78 2.47833 33.7333 3.4 33.6866 4.66C33.64 6.03667 33.6166 7.13333 33.6166 7.95V22.02C33.8966 22.02 34.375 21.9383 35.0516 21.775C35.7516 21.6117 36.3583 21.4717 36.8716 21.355L37.0116 21.565L36.2416 26.5H28.1916V26.15ZM47.9538 26.85C46.1105 26.85 44.4655 26.465 43.0188 25.695C41.5721 24.9017 40.4405 23.8167 39.6238 22.44C38.8305 21.0633 38.4338 19.5 38.4338 17.75C38.4338 16 38.8421 14.4367 39.6588 13.06C40.4755 11.6833 41.6071 10.61 43.0538 9.84C44.5005 9.04667 46.1338 8.65 47.9538 8.65C49.8205 8.65 51.4771 9.035 52.9238 9.805C54.3705 10.575 55.4905 11.6483 56.2838 13.025C57.1005 14.4017 57.5088 15.9767 57.5088 17.75C57.5088 19.4767 57.0888 21.04 56.2488 22.44C55.4321 23.8167 54.3005 24.9017 52.8538 25.695C51.4071 26.465 49.7738 26.85 47.9538 26.85ZM47.9538 22.3C48.7471 22.3 49.4588 22.1133 50.0888 21.74C50.7188 21.3433 51.2088 20.795 51.5588 20.095C51.9088 19.395 52.0838 18.6133 52.0838 17.75C52.0838 16.8867 51.9088 16.105 51.5588 15.405C51.2088 14.705 50.7188 14.1683 50.0888 13.795C49.4588 13.3983 48.7471 13.2 47.9538 13.2C47.1605 13.2 46.4488 13.3983 45.8188 13.795C45.2121 14.1683 44.7338 14.705 44.3838 15.405C44.0338 16.105 43.8588 16.8867 43.8588 17.75C43.8588 18.6133 44.0338 19.395 44.3838 20.095C44.7338 20.795 45.2121 21.3433 45.8188 21.74C46.4488 22.1133 47.1605 22.3 47.9538 22.3ZM69.286 26.85C67.7927 26.85 66.4743 26.5233 65.331 25.87C64.211 25.2167 63.336 24.3067 62.706 23.14C62.0993 21.9733 61.796 20.62 61.796 19.08V13.13C61.4693 13.13 60.641 13.2933 59.311 13.62L58.856 13.725L58.716 13.515L59.416 9H62.846C63.4993 9 64.2693 8.97667 65.156 8.93C66.066 8.86 66.7427 8.79 67.186 8.72L67.256 8.895C67.1393 10.365 67.081 12.3833 67.081 14.95V18.59C67.081 19.6167 67.3843 20.4567 67.991 21.11C68.5977 21.74 69.3793 22.055 70.336 22.055C70.9893 22.055 71.561 21.9033 72.051 21.6C72.5643 21.2967 72.961 20.8767 73.241 20.34C73.521 19.78 73.661 19.1733 73.661 18.52V13.935C73.661 12.2783 73.591 10.7267 73.451 9.28V9H74.711C75.3643 9 76.1343 8.97667 77.021 8.93C77.931 8.86 78.596 8.79 79.016 8.72L79.121 8.895C78.981 10.4583 78.911 12.4767 78.911 14.95V22.37C79.2143 22.37 80.031 22.2067 81.361 21.88C81.4543 21.8567 81.536 21.845 81.606 21.845C81.6994 21.8217 81.7927 21.7983 81.886 21.775L81.991 21.985L81.291 26.5H74.221V26.15C74.221 26.0333 74.221 25.9167 74.221 25.8C74.2443 25.6833 74.256 25.5667 74.256 25.45C74.256 25.3333 74.256 25.2283 74.256 25.135C74.256 25.0183 74.2677 24.89 74.291 24.75C73.661 25.4267 72.926 25.9517 72.086 26.325C71.246 26.675 70.3127 26.85 69.286 26.85ZM91.8493 26.85C90.2393 26.85 88.7926 26.465 87.5093 25.695C86.2259 24.9017 85.2226 23.8167 84.4993 22.44C83.7759 21.04 83.4143 19.4767 83.4143 17.75C83.4143 16 83.7643 14.4367 84.4643 13.06C85.1876 11.66 86.1909 10.575 87.4743 9.805C88.7576 9.035 90.2159 8.65 91.8493 8.65C92.7359 8.65 93.5643 8.77833 94.3343 9.035C95.1043 9.29167 95.7926 9.67667 96.3993 10.19V6.13C96.0493 6.13 95.1976 6.29333 93.8443 6.62C93.6109 6.64333 93.4359 6.67833 93.3193 6.725L93.1793 6.515L93.9493 2H97.4143C98.1143 2 98.8959 1.97667 99.7593 1.93C100.646 1.86 101.311 1.79 101.754 1.72L101.859 1.895C101.813 2.29167 101.778 2.72333 101.754 3.19C101.754 3.65667 101.743 4.14667 101.719 4.66C101.696 5.17333 101.673 5.71 101.649 6.27C101.649 6.83 101.649 7.39 101.649 7.95V22.37C101.953 22.37 102.769 22.2067 104.099 21.88C104.193 21.8567 104.286 21.845 104.379 21.845C104.473 21.8217 104.554 21.7983 104.624 21.775L104.764 21.985L104.029 26.5H96.9243V26.15C96.9476 26.0567 96.9593 25.9633 96.9593 25.87C96.9593 25.7533 96.9709 25.6367 96.9943 25.52C96.9943 25.4033 96.9943 25.2983 96.9943 25.205C96.9943 25.0883 97.0059 24.9833 97.0293 24.89C96.3526 25.52 95.5709 26.01 94.6843 26.36C93.7976 26.6867 92.8526 26.85 91.8493 26.85ZM92.7593 22.335C93.4826 22.335 94.1359 22.1367 94.7193 21.74C95.3259 21.3433 95.8043 20.795 96.1543 20.095C96.5043 19.395 96.6793 18.6133 96.6793 17.75C96.6793 16.8867 96.5043 16.105 96.1543 15.405C95.8043 14.705 95.3259 14.1567 94.7193 13.76C94.1359 13.3633 93.4826 13.165 92.7593 13.165C92.0126 13.165 91.3359 13.3633 90.7293 13.76C90.1459 14.1567 89.6793 14.705 89.3293 15.405C89.0026 16.105 88.8393 16.8867 88.8393 17.75C88.8393 18.6133 89.0026 19.395 89.3293 20.095C89.6793 20.795 90.1459 21.3433 90.7293 21.74C91.3359 22.1367 92.0126 22.335 92.7593 22.335ZM108.138 26.15C108.255 24.3533 108.313 22.4867 108.313 20.55V6.13C107.986 6.13 107.158 6.29333 105.828 6.62L105.338 6.725L105.198 6.515L105.933 2H109.328C110.005 2 110.786 1.97667 111.673 1.93C112.56 1.86 113.225 1.79 113.668 1.72L113.773 1.895C113.726 2.47833 113.68 3.4 113.633 4.66C113.586 6.03667 113.563 7.13333 113.563 7.95V22.02C113.843 22.02 114.321 21.9383 114.998 21.775C115.698 21.6117 116.305 21.4717 116.818 21.355L116.958 21.565L116.188 26.5H108.138V26.15ZM124.085 26.85C122.265 26.85 120.853 26.4067 119.85 25.52C118.847 24.6333 118.345 23.4433 118.345 21.95C118.345 20.7133 118.683 19.6983 119.36 18.905C120.06 18.1117 121.017 17.5167 122.23 17.12C123.443 16.7 124.937 16.4317 126.71 16.315C127.597 16.245 128.308 16.1633 128.845 16.07C129.382 15.9533 129.79 15.79 130.07 15.58C130.35 15.3467 130.49 15.055 130.49 14.705C130.49 14.145 130.257 13.7017 129.79 13.375C129.323 13.0483 128.67 12.885 127.83 12.885C127.2 12.885 126.617 12.99 126.08 13.2C125.567 13.41 125.112 13.725 124.715 14.145C124.318 14.565 123.992 15.055 123.735 15.615L123.665 15.79L119.745 15.09L121.74 7.425H126.43L126.605 7.6L125.905 9.21C126.185 9.07 126.442 8.97667 126.675 8.93C127.002 8.86 127.328 8.80167 127.655 8.755C128.005 8.685 128.39 8.65 128.81 8.65C130.77 8.65 132.322 9.26833 133.465 10.505C134.632 11.7183 135.215 13.3983 135.215 15.545V22.37C135.495 22.37 136.323 22.2067 137.7 21.88C137.77 21.8567 137.84 21.845 137.91 21.845C138.003 21.8217 138.085 21.7983 138.155 21.775L138.295 21.985L137.56 26.5H130.455V26.15C130.478 25.9867 130.49 25.8117 130.49 25.625C130.49 25.4383 130.502 25.2517 130.525 25.065C130.525 24.925 130.525 24.8083 130.525 24.715C130.525 24.5983 130.525 24.4933 130.525 24.4C129.802 25.17 128.868 25.7767 127.725 26.22C126.582 26.64 125.368 26.85 124.085 26.85ZM125.8 22.65C126.593 22.65 127.352 22.4633 128.075 22.09C128.798 21.6933 129.382 21.18 129.825 20.55C130.268 19.92 130.49 19.2667 130.49 18.59V18.31C130.093 18.5433 129.615 18.7417 129.055 18.905C128.495 19.045 127.9 19.15 127.27 19.22C126.127 19.3133 125.252 19.5 124.645 19.78C124.062 20.06 123.77 20.5033 123.77 21.11C123.77 21.6233 123.945 22.0083 124.295 22.265C124.668 22.5217 125.17 22.65 125.8 22.65ZM162.011 21.985L161.311 26.5H153.436V26.15C153.552 24.5167 153.611 22.65 153.611 20.55V16.98C153.611 15.93 153.307 15.0783 152.701 14.425C152.094 13.7717 151.312 13.445 150.356 13.445C149.726 13.445 149.166 13.5967 148.676 13.9C148.186 14.2033 147.801 14.635 147.521 15.195C147.241 15.7317 147.101 16.3267 147.101 16.98V20.55C147.101 22.4867 147.147 24.3533 147.241 26.15V26.5H141.641V26.15C141.757 24.3533 141.816 22.4867 141.816 20.55V13.13C141.489 13.13 140.661 13.2933 139.331 13.62L138.841 13.725L138.736 13.515L139.436 9H142.131C142.784 9 143.554 8.97667 144.441 8.93C145.327 8.86 145.992 8.79 146.436 8.72L146.541 8.895C146.517 9.19833 146.494 9.51333 146.471 9.84C146.447 10.1667 146.424 10.4933 146.401 10.82C147.031 10.12 147.789 9.58333 148.676 9.21C149.562 8.83667 150.531 8.65 151.581 8.65C153.051 8.65 154.334 8.97667 155.431 9.63C156.551 10.2833 157.414 11.205 158.021 12.395C158.627 13.5617 158.931 14.9033 158.931 16.42V22.37C159.211 22.37 160.039 22.2067 161.416 21.88C161.509 21.8567 161.591 21.845 161.661 21.845C161.731 21.8217 161.801 21.7983 161.871 21.775L162.011 21.985ZM171.659 26.85C170.049 26.85 168.602 26.465 167.319 25.695C166.035 24.9017 165.032 23.8167 164.309 22.44C163.585 21.04 163.224 19.4767 163.224 17.75C163.224 16 163.574 14.4367 164.274 13.06C164.997 11.66 166 10.575 167.284 9.805C168.567 9.035 170.025 8.65 171.659 8.65C172.545 8.65 173.374 8.77833 174.144 9.035C174.914 9.29167 175.602 9.67667 176.209 10.19V6.13C175.859 6.13 175.007 6.29333 173.654 6.62C173.42 6.64333 173.245 6.67833 173.129 6.725L172.989 6.515L173.759 2H177.224C177.924 2 178.705 1.97667 179.569 1.93C180.455 1.86 181.12 1.79 181.564 1.72L181.669 1.895C181.622 2.29167 181.587 2.72333 181.564 3.19C181.564 3.65667 181.552 4.14667 181.529 4.66C181.505 5.17333 181.482 5.71 181.459 6.27C181.459 6.83 181.459 7.39 181.459 7.95V22.37C181.762 22.37 182.579 22.2067 183.909 21.88C184.002 21.8567 184.095 21.845 184.189 21.845C184.282 21.8217 184.364 21.7983 184.434 21.775L184.574 21.985L183.839 26.5H176.734V26.15C176.757 26.0567 176.769 25.9633 176.769 25.87C176.769 25.7533 176.78 25.6367 176.804 25.52C176.804 25.4033 176.804 25.2983 176.804 25.205C176.804 25.0883 176.815 24.9833 176.839 24.89C176.162 25.52 175.38 26.01 174.494 26.36C173.607 26.6867 172.662 26.85 171.659 26.85ZM172.569 22.335C173.292 22.335 173.945 22.1367 174.529 21.74C175.135 21.3433 175.614 20.795 175.964 20.095C176.314 19.395 176.489 18.6133 176.489 17.75C176.489 16.8867 176.314 16.105 175.964 15.405C175.614 14.705 175.135 14.1567 174.529 13.76C173.945 13.3633 173.292 13.165 172.569 13.165C171.822 13.165 171.145 13.3633 170.539 13.76C169.955 14.1567 169.489 14.705 169.139 15.405C168.812 16.105 168.649 16.8867 168.649 17.75C168.649 18.6133 168.812 19.395 169.139 20.095C169.489 20.795 169.955 21.3433 170.539 21.74C171.145 22.1367 171.822 22.335 172.569 22.335Z" fill="#705FDB"/>
</svg>
